<svg
    xmlns:xlink="http://www.w3.org/1999/xlink"
    width="62"
    xmlns="http://www.w3.org/2000/svg"
    height="92"
    id="WholeLogo3x3SVG"
    viewBox="-1 -1 62 92"
>
    <g  rx="0" ry="0">
        <path
            class="digit51"
            rx="0"
            ry="0"
            d="m0,0 l20,0 l0,10 l-10,0 l10,0 l0,20 l-20,0 l0,-10 l10,0 l-10,0 l0,-20Z" style="fill: none; stroke-width: 2; stroke: rgb(85, 0, 0); stroke-opacity: 1;"
        />

        <path
            class="digit52"
            rx="0"
            ry="0"
            d="M20,0 l20,0 l0,10 l-10,0 l10,0 l0,20 l-20,0 l0,-10 l10,0 l-10,0 l0,-20Z" style="fill: none; stroke-width: 2; stroke: rgb(170, 0, 0); stroke-opacity: 1;"
        />

        <path
            class="digit53"
            rx="0"
            ry="0"
            d="M40,0 l20,0 l0,10 l-10,0 l10,0 l0,20 l-20,0 l0,-10 l10,0 l-10,0 l0,-20Z" style="fill: none; stroke-width: 2; stroke: rgb(255, 0, 0); stroke-opacity: 1;"
        />

        <path
            class="digit54"
            rx="0"
            ry="0"
            d="M0,30 l20,0 l0,10 l-10,0 l10,0 l0,20 l-20,0 l0,-10 l10,0 l-10,0 l0,-20Z" style="fill: none; stroke-width: 2; stroke: rgb(0, 85, 0); stroke-opacity: 1;"
        />

        <path
            class="digit55"
            rx="0"
            ry="0"
            d="M20,30 l20,0 l0,10 l-10,0 l10,0 l0,20 l-20,0 l0,-10 l10,0 l-10,0 l0,-20Z" style="fill: none; stroke-width: 2; stroke: rgb(0, 170, 0); stroke-opacity: 1;"
        />

        <path
            class="digit56"
            rx="0"
            ry="0"
            d="M40,30 l20,0 l0,10 l-10,0 l10,0 l0,20 l-20,0 l0,-10 l10,0 l-10,0 l0,-20Z" style="fill: none; stroke-width: 2; stroke: rgb(0, 255, 0); stroke-opacity: 1;"
        />

        <path
            class="digit4"
            rx="0"
            ry="0"
            d="M0,60 l10,0 l0,10 l0,-10 l10,0 l0,30 l-10,0 l0,-10 l-10,0 l0,-20Z" style="fill: none; stroke-width: 2; stroke: rgb(0, 0, 85); stroke-opacity: 1;"
        />

        <path
            class="digit8"
            rx="0"
            ry="0"
            d="M20,60 l20,0 l0,30 l-20,0 l0,-30Z m10,5.5 l0,5 m0,5.5 l0,8" style="fill: none; stroke-width: 2; stroke: rgb(0, 0, 170); stroke-opacity: 1;"
        />

        <path
            class="digit6"
            rx="0"
            ry="0"
            d="M40,60 l20,0 l0,10 l-10,0 l10,0 l0,20 l-20,0 l0,-30Z m10,16 l0,8" style="fill: none; stroke-width: 2; stroke: rgb(0, 0, 255); stroke-opacity: 1;"
        />
    </g>
</svg>